name rise49.25peak52.1432fall72.8391.mot
datacolumns 19
datarows 12
range 6.64331200000000 6.66164400000000
endheader
time	ground_force1_vx	ground_force1_vy	ground_force1_vz	ground_force1_px	ground_force1_py	ground_force1_pz	ground_force2_vx	ground_force2_vy	ground_force2_vz	ground_force2_px	ground_force2_py	ground_force2_pz	ground_torque1_x	ground_torque1_y	ground_torque1_z	ground_torque2_x	ground_torque2_y	ground_torque2_z	
6.64331200000000	6.63651700000000	710.61623099999997	38.41326600000000	0.21862100000000	0.00000000000000	0.10029000000000	0.00000000000000	0.00000000000000	0.00000000000000	0.00000000000000	0.00000000000000	0.00000000000000	0.00000000000000	16.14924600000000	0.00000000000000	0.00000000000000	0.00000000000000	0.00000000000000	
6.64497500000000	6.16615400000000	711.49141299999997	38.44958300000000	0.21769100000000	0.00000000000000	0.10026300000000	0.00000000000000	0.00000000000000	0.00000000000000	0.00000000000000	0.00000000000000	0.00000000000000	0.00000000000000	16.20066900000000	0.00000000000000	0.00000000000000	0.00000000000000	0.00000000000000	
6.64663600000000	5.68186300000000	712.37783899999999	38.49041600000000	0.21672600000000	0.00000000000000	0.10023900000000	0.00000000000000	0.00000000000000	0.00000000000000	0.00000000000000	0.00000000000000	0.00000000000000	0.00000000000000	16.25467200000000	0.00000000000000	0.00000000000000	0.00000000000000	0.00000000000000	
6.64831200000000	5.18364700000000	713.27453800000001	38.53571500000000	0.21572700000000	0.00000000000000	0.10021700000000	0.00000000000000	0.00000000000000	0.00000000000000	0.00000000000000	0.00000000000000	0.00000000000000	0.00000000000000	16.31123800000000	0.00000000000000	0.00000000000000	0.00000000000000	0.00000000000000	
6.64997200000000	4.67156300000000	714.18063199999995	38.58543700000000	0.21469400000000	0.00000000000000	0.10019800000000	0.00000000000000	0.00000000000000	0.00000000000000	0.00000000000000	0.00000000000000	0.00000000000000	0.00000000000000	16.37035100000000	0.00000000000000	0.00000000000000	0.00000000000000	0.00000000000000	
6.65163900000000	4.14572400000000	715.09532899999999	38.63954300000000	0.21362900000000	0.00000000000000	0.10018100000000	0.00000000000000	0.00000000000000	0.00000000000000	0.00000000000000	0.00000000000000	0.00000000000000	0.00000000000000	16.43199600000000	0.00000000000000	0.00000000000000	0.00000000000000	0.00000000000000	
6.65330400000000	3.60629000000000	716.01792499999999	38.69799600000000	0.21253300000000	0.00000000000000	0.10016700000000	0.00000000000000	0.00000000000000	0.00000000000000	0.00000000000000	0.00000000000000	0.00000000000000	0.00000000000000	16.49616200000000	0.00000000000000	0.00000000000000	0.00000000000000	0.00000000000000	
6.65497700000000	3.05347700000000	716.94780200000002	38.76076200000000	0.21140600000000	0.00000000000000	0.10015600000000	0.00000000000000	0.00000000000000	0.00000000000000	0.00000000000000	0.00000000000000	0.00000000000000	0.00000000000000	16.56283500000000	0.00000000000000	0.00000000000000	0.00000000000000	0.00000000000000	
6.65663600000000	2.48754600000000	717.88442599999996	38.82780600000000	0.21025200000000	0.00000000000000	0.10014600000000	0.00000000000000	0.00000000000000	0.00000000000000	0.00000000000000	0.00000000000000	0.00000000000000	0.00000000000000	16.63200500000000	0.00000000000000	0.00000000000000	0.00000000000000	0.00000000000000	
6.65831100000000	1.90880800000000	718.82734700000003	38.89909900000000	0.20907100000000	0.00000000000000	0.10014000000000	0.00000000000000	0.00000000000000	0.00000000000000	0.00000000000000	0.00000000000000	0.00000000000000	0.00000000000000	16.70365900000000	0.00000000000000	0.00000000000000	0.00000000000000	0.00000000000000	
6.65997400000000	1.31761800000000	719.77619200000004	38.97460800000000	0.20786500000000	0.00000000000000	0.10013500000000	0.00000000000000	0.00000000000000	0.00000000000000	0.00000000000000	0.00000000000000	0.00000000000000	0.00000000000000	16.77778400000000	0.00000000000000	0.00000000000000	0.00000000000000	0.00000000000000	
6.66164400000000	0.71437500000000	720.73066600000004	39.05430100000000	0.20663700000000	0.00000000000000	0.10013300000000	0.00000000000000	0.00000000000000	0.00000000000000	0.00000000000000	0.00000000000000	0.00000000000000	0.00000000000000	16.85436700000000	0.00000000000000	0.00000000000000	0.00000000000000	0.00000000000000	
